<?xml version="1.0" encoding="utf-8"?>
<!-- Generator: Adobe Illustrator 16.0.0, SVG Export Plug-In . SVG Version: 6.00 Build 0)  -->
<!DOCTYPE svg PUBLIC "-//W3C//DTD SVG 1.1//EN" "http://www.w3.org/Graphics/SVG/1.1/DTD/svg11.dtd">
<svg version="1.1" id="Layer_1" xmlns="http://www.w3.org/2000/svg" xmlns:xlink="http://www.w3.org/1999/xlink" x="0px" y="0px"
	 width="595.28px" height="355.094px" viewBox="0 0 595.28 355.094" enable-background="new 0 0 595.28 355.094"
	 xml:space="preserve">
<polygon fill="#1068B2" points="64.724,145.989 111.147,145.989 147.669,194.89 187.282,145.989 197.187,145.989 130.954,233.885 
	"/>
<polygon fill="#1068B2" points="47.703,145.989 59.309,145.989 128.449,237.253 123.373,243.943 "/>
<path fill="#1068B2" d="M240.517,122.469c0,0,101.2-21.046,165.884-21.046c64.686,0,57.257,15.476,57.257,18.261
	c0,2.785-8.359,25.069-24.76,35.59c26.925-19.498,43.949-36.519,43.949-47.043c0-10.522-15.783-19.806-61.278-19.806
	S301.796,105.448,240.517,122.469z"/>
<path fill="#1068B2" d="M281.682,95.855c0,0,101.2-21.05,165.885-21.05c64.686,0,57.257,15.479,57.257,18.265
	c0,2.785-8.36,25.065-24.76,35.586c26.925-19.498,43.949-36.515,43.949-47.04c0-10.525-15.784-19.81-61.279-19.81
	S342.961,78.831,281.682,95.855z"/>
<path fill="#1068B2" d="M322.843,69.237c0,0,101.2-21.046,165.885-21.046s57.257,15.476,57.257,18.261
	c0,2.785-8.36,25.065-24.76,35.59c26.925-19.498,43.949-36.519,43.949-47.041c0-10.525-15.784-19.81-61.279-19.81
	S384.122,52.217,322.843,69.237z"/>
<g>
	<path fill="#1068B2" d="M68.608,296.726c0,3.99-2.158,8.081-6.47,12.271c-2.659,2.579-6.042,4.534-10.155,5.865
		c-3.707,1.208-7.616,1.814-11.729,1.814c-4.875,0-9.187-0.988-12.937-2.963c-4.675-2.417-7.011-5.823-7.011-10.217
		c0-1.973,0.707-3.848,2.115-5.622c1.411-1.774,3.083-2.921,5.019-3.445l0.788,1.51c-3.065,1.451-4.596,3.165-4.596,5.139
		c0,4.192,2.619,7.194,7.86,9.007c3.543,1.25,7.855,1.873,12.937,1.873c7.13,0,12.814-2.114,17.046-6.346
		c1.813-1.814,2.72-3.568,2.72-5.259c0-3.828-3.246-5.743-9.731-5.743c-1.052,0-2.633,0.082-4.748,0.241
		c-2.115,0.161-3.7,0.243-4.744,0.243c-4.272,0-7.78-1.028-10.521-3.084c-3.061-2.255-4.591-5.46-4.591-9.611
		c0-4.111,1.872-7.435,5.622-9.976c3.304-2.176,7.072-3.264,11.305-3.264c2.818,0,5.259,0.867,7.315,2.6
		c0.522-0.243,0.925-0.362,1.208-0.362c0.845,0,1.513,0.462,1.995,1.389c0.283,0.566,0.776,1.241,1.48,2.026
		c0.707,0.787,1.099,1.28,1.179,1.481c0,0.241-0.142,0.524-0.421,0.847c-1.132,1.329-1.937,2.759-2.419,4.292
		c-0.12,0.403-0.283,0.664-0.482,0.785c-0.363,0-0.907-0.303-1.632-0.906c-0.203-0.122-1.11-0.524-2.724-1.21
		c-1.088-0.484-1.632-1.046-1.632-1.692c0-0.524,0.231-1.229,0.696-2.116c0.465-0.887,0.696-1.592,0.696-2.117
		c0-2.054-1.613-3.082-4.838-3.082c-3.423,0-6.448,0.725-9.066,2.176c-3.224,1.813-4.835,4.292-4.835,7.437
		c0,4.513,3.362,6.77,10.093,6.77c0.889,0,2.238-0.069,4.052-0.211c1.813-0.141,3.163-0.212,4.051-0.212
		c4.834,0,8.541,0.484,11.124,1.451C66.613,290.037,68.608,292.776,68.608,296.726z"/>
	<path fill="#1068B2" d="M99.984,303.436c-4.109,4.434-7.758,6.649-10.942,6.649c-0.725,0-1.338-0.252-1.842-0.756
		c-0.504-0.502-0.758-1.117-0.758-1.842c0-0.564,0.265-1.362,0.787-2.388c0.522-1.028,0.788-1.824,0.788-2.389
		c0-0.847-0.403-1.49-1.212-1.935c-1.45,2.218-3.061,4.111-4.834,5.684c-2.379,2.176-4.555,3.264-6.528,3.264
		c-1.411,0-2.521-0.484-3.327-1.451c-0.805-0.966-1.208-2.176-1.208-3.627c0-2.579,1.208-4.856,3.627-6.831
		c2.296-1.813,4.755-2.72,7.374-2.72c0.566,0,1.433,0,2.6,0c0.483-1.249,1.248-1.875,2.296-1.875c0.566,0,1.048,0.241,1.451,0.722
		c0.402,0.483,0.605,1.003,0.605,1.565c0,0.321-0.181,1.002-0.544,2.043c2.016,0.965,3.224,1.946,3.627,2.949
		c0.243,1.364,0.486,2.708,0.725,4.031c0.163,0.642,0.544,0.961,1.149,0.961c0.885,0,2.88-0.927,5.984-2.78L99.984,303.436z
		 M85.596,299.688c-0.685-0.564-1.088-1.007-1.208-1.33c-0.123-0.323-0.181-0.968-0.181-1.935c-0.203-0.04-0.464-0.06-0.787-0.06
		c-1.653,0-3.064,0.301-4.232,0.907c-1.491,0.807-2.238,1.933-2.238,3.386c0,0.887,0.305,1.751,0.91,2.599
		c0.602,0.847,1.35,1.27,2.234,1.27C81.948,304.524,83.783,302.912,85.596,299.688z"/>
	<path fill="#1068B2" d="M86.561,288.686c-0.522,0-0.986-0.051-1.389-0.15c-0.403-0.102-0.606-0.292-0.606-0.575
		c0.809-0.402,1.614-0.785,2.419-1.149c0.685-0.483,1.15-1.228,1.389-2.236c0.043-0.16,0.043-0.434,0-0.816
		c-0.04-0.383-0.04-0.635,0-0.756c0.203-0.845,0.907-1.108,2.118-0.785c1.292,0.323,1.934,1.17,1.934,2.539
		c0,1.249-0.704,2.258-2.115,3.023C89.143,288.382,87.892,288.686,86.561,288.686z"/>
	<path fill="#1068B2" d="M128.455,303.376c-1.088,1.208-2.521,2.519-4.291,3.93c-2.339,1.893-3.989,2.84-4.958,2.84
		c-1.128,0-2.035-0.785-2.72-2.357c-0.486-1.451-1.009-2.941-1.574-4.474c-0.562-1.531-1.327-2.296-2.296-2.296
		c-0.845,0-2.561,1.57-5.139,4.715c-2.579,3.143-4.251,4.715-5.016,4.715c-0.928,0-1.614-0.867-2.057-2.599
		c-0.283-1.209-0.424-2.519-0.424-3.93c0-1.854,0.627-3.848,1.875-5.986c1.411-2.377,2.981-3.565,4.715-3.565
		c0.646,0,0.968,0.383,0.968,1.148c0,0.726-0.265,1.683-0.787,2.871c-0.522,1.189-0.783,2.187-0.783,2.994
		c0,1.652,0.261,2.338,0.783,2.055c0.323-0.201,1.734-1.613,4.233-4.233c2.056-2.216,3.707-3.324,4.958-3.324
		c1.208,0,2.136,0.808,2.778,2.417c0.486,1.493,0.946,2.983,1.393,4.474c0.606,1.612,1.469,2.418,2.6,2.418
		c0.846,0,1.73-0.263,2.659-0.787c0.765-0.482,1.553-0.986,2.357-1.51L128.455,303.376z"/>
	<path fill="#1068B2" d="M153.784,303.496l-7.982,8.041c-0.12,1.935-1.048,4.715-2.778,8.344c-1.977,3.989-3.71,5.984-5.201,5.984
		c-0.885,0-1.61-0.484-2.176-1.451c-0.442-0.847-0.664-1.753-0.664-2.72c0-1.614,1.661-4.243,4.987-7.891
		c3.326-3.646,4.987-5.732,4.987-6.256c0-1.813-1.066-3.547-3.203-5.199l-0.605,0.06c-2.619,4.958-5.904,7.437-9.854,7.437
		c-1.291,0-2.336-0.543-3.145-1.632c-0.725-0.968-1.088-2.116-1.088-3.447c0-3.143,1.472-5.662,4.414-7.557
		c2.662-1.652,5.582-2.357,8.766-2.115c0.323-0.887,0.522-1.391,0.606-1.512c0.279-0.443,0.743-0.666,1.389-0.666
		c1.331,0,1.995,0.767,1.995,2.298c0,0.565-0.142,1.27-0.424,2.116c2.176,1.935,3.268,3.95,3.268,6.046
		c0,0.482-0.083,1.188-0.243,2.114c-0.163,0.929-0.243,1.614-0.243,2.057c1.371-1.128,3.547-2.74,6.528-4.837L153.784,303.496z
		 M140.122,301.381c-0.605-0.926-0.906-1.651-0.906-2.178c0-1.006,0.181-1.893,0.544-2.658c-2.3,0.12-3.79,0.281-4.476,0.482
		c-1.69,0.524-2.538,1.632-2.538,3.326c0,1.169,0.373,2.156,1.121,2.961c0.743,0.807,1.679,1.209,2.811,1.209
		C138.207,304.524,139.354,303.476,140.122,301.381z"/>
	<path fill="#1068B2" d="M182.074,303.314c-1.248,1.572-2.8,3.023-4.653,4.354c-2.22,1.652-4.113,2.478-5.684,2.478
		c-1.534,0-2.833-0.644-3.899-1.933c-1.07-1.29-1.603-2.722-1.603-4.292c0-1.249,0.442-3.547,1.332-6.893
		c-1.292,0-2.137-0.04-2.539-0.12c-1.048-0.243-1.574-0.808-1.574-1.694c0-1.208,0.504-1.813,1.513-1.813
		c0.442,0,1.048,0.082,1.813,0.243c1.009,0.161,1.611,0.261,1.813,0.301c0.765-2.82,1.411-4.795,1.933-5.924
		c1.128-2.458,2.561-3.687,4.294-3.687c1.208,0,1.813,0.444,1.813,1.329c0,0.886-0.664,2.419-1.994,4.595
		c-0.969,1.451-1.934,2.921-2.902,4.412c0.925,0.042,2.256,0.062,3.99,0.062c0.402,0,1.008-0.04,1.813-0.122
		c0.805-0.08,1.389-0.122,1.751-0.122c-1.813,1.693-4.773,2.581-8.886,2.661c-0.482,1.45-0.726,2.62-0.726,3.507
		c0,1.57,0.704,2.76,2.118,3.565c1.125,0.646,2.557,0.968,4.291,0.968c1.531,0,3.366-0.765,5.502-2.297L182.074,303.314z"/>
	<path fill="#1068B2" d="M210.305,303.436c-4.109,4.434-7.757,6.649-10.942,6.649c-0.726,0-1.338-0.252-1.842-0.756
		c-0.505-0.502-0.758-1.117-0.758-1.842c0-0.564,0.265-1.362,0.787-2.388c0.522-1.028,0.787-1.824,0.787-2.389
		c0-0.847-0.402-1.49-1.211-1.935c-1.451,2.218-3.061,4.111-4.835,5.684c-2.379,2.176-4.555,3.264-6.528,3.264
		c-1.411,0-2.521-0.484-3.326-1.451c-0.805-0.966-1.208-2.176-1.208-3.627c0-2.579,1.208-4.856,3.626-6.831
		c2.296-1.813,4.755-2.72,7.374-2.72c0.566,0,1.433,0,2.601,0c0.482-1.249,1.248-1.875,2.296-1.875c0.565,0,1.048,0.241,1.45,0.722
		c0.403,0.483,0.606,1.003,0.606,1.565c0,0.321-0.182,1.002-0.544,2.043c2.017,0.965,3.224,1.946,3.626,2.949
		c0.244,1.364,0.486,2.708,0.726,4.031c0.163,0.642,0.544,0.961,1.149,0.961c0.885,0,2.88-0.927,5.984-2.78L210.305,303.436z
		 M195.918,299.688c-0.686-0.564-1.088-1.007-1.208-1.33c-0.124-0.323-0.182-0.968-0.182-1.935c-0.203-0.04-0.464-0.06-0.787-0.06
		c-1.654,0-3.065,0.301-4.233,0.907c-1.491,0.807-2.237,1.933-2.237,3.386c0,0.887,0.304,1.751,0.91,2.599
		c0.602,0.847,1.349,1.27,2.234,1.27C192.269,304.524,194.104,302.912,195.918,299.688z"/>
	<path fill="#1068B2" d="M197.187,318.004c0,1.573-0.849,2.358-2.539,2.358c-0.968,0-1.846-0.374-2.629-1.119
		c-0.787-0.745-1.179-1.601-1.179-2.567c0-1.654,0.784-2.479,2.358-2.479c1.048,0,1.973,0.372,2.778,1.119
		C196.785,316.061,197.187,316.957,197.187,318.004z"/>
	<path fill="#1068B2" d="M231.769,297.511c-0.82,1.128-2.009,1.873-3.569,2.236c0,0.283,0,0.646,0,1.09
		c0.16,2.941-0.907,5.279-3.203,7.013c-1.977,1.571-4.414,2.357-7.315,2.357c-2.097,0-3.87-0.605-5.321-1.813
		c-1.571-1.25-2.357-2.903-2.357-4.958c0-1.894,0.968-3.848,2.901-5.865c1.933-2.015,3.888-3.223,5.865-3.627
		c0.925-0.201,1.411-0.1,1.45,0.303c0.04,0.323-0.301,0.646-1.026,0.967c-1.088,0.444-2.176,0.866-3.268,1.27
		c-0.964,0.605-1.451,1.632-1.451,3.083c0,1.653,0.827,3.044,2.48,4.172c1.451,1.006,3.043,1.51,4.777,1.51
		c2.941,0,4.41-1.712,4.41-5.137c-0.562,0-1.146,0-1.751,0c-2.296,0-3.446-0.746-3.446-2.238c0-2.619,0.363-3.93,1.088-3.93
		c0.402,0,1.389,0.615,2.963,1.844c1.57,1.229,3.322,1.844,5.259,1.844C230.739,297.633,231.243,297.593,231.769,297.511z"/>
	<path fill="#1068B2" d="M263.867,303.376c-1.694,1.612-3.667,3.103-5.926,4.474c-2.778,1.652-5.078,2.477-6.891,2.477
		c-1.654,0-3.083-0.725-4.291-2.176c-1.211-1.45-1.813-3.001-1.813-4.655c0-2.457,1.49-4.655,4.472-6.588
		c2.698-1.774,5.339-2.661,7.921-2.661c1.813,0,2.72,0.604,2.72,1.813c0,0.766-0.403,1.148-1.212,1.148
		c-0.602,0-1.44-0.091-2.506-0.272c-1.07-0.182-1.904-0.272-2.51-0.272c-1.172,0-2.147,0.393-2.931,1.178
		c-0.787,0.788-1.183,1.765-1.183,2.933c0,1.411,0.494,2.581,1.483,3.507c0.987,0.926,2.206,1.389,3.656,1.389
		c2.782,0,5.502-1.108,8.161-3.324L263.867,303.376z"/>
	<path fill="#1068B2" d="M290.103,303.073c-3.707,4.675-6.873,7.012-9.492,7.012c-2.499,0-4.131-1.692-4.896-5.078
		c-2.702,3.386-5.299,5.078-7.798,5.078c-1.371,0-2.589-0.613-3.659-1.837c-1.066-1.224-1.6-2.539-1.6-3.944
		c0-1.766,0.544-3.855,1.632-6.264c1.248-2.771,2.619-4.156,4.11-4.156c1.291,0,1.937,0.685,1.937,2.054
		c0,0.847-0.718,1.835-2.147,2.963c-1.433,1.128-2.147,2.035-2.147,2.72c0,1.128,0.725,1.955,2.176,2.479
		c1.048,0.403,2.256,0.604,3.627,0.604c1.574,0,3.003-0.825,4.294-2.479c0.925-1.491,1.871-3.032,2.84-4.625
		c0.968-1.592,1.915-2.388,2.84-2.388c1.411,0,2.118,0.625,2.118,1.875c0,0.725-0.573,1.661-1.723,2.811
		c-1.149,1.148-1.723,2.025-1.723,2.63c0.686,1.008,1.187,1.653,1.513,1.935c0.562,0.444,1.367,0.664,2.416,0.664
		c1.773,0,3.525-0.885,5.259-2.659L290.103,303.073z"/>
	<path fill="#1068B2" d="M282.483,280.645c0,1.17-0.403,2.176-1.208,3.023c-0.283,0.323-1.07,0.946-2.357,1.873
		c-0.765,0.526-1.27,0.988-1.513,1.391c-0.08,0.405-0.283,0.887-0.605,1.451c-0.16,0.082-0.319,0.122-0.482,0.122
		c-0.522,0-0.787-0.241-0.787-0.725c0-0.241,0.083-0.524,0.243-0.847c0.403-0.847,1.07-1.792,1.995-2.841
		c1.088-1.248,1.632-2.497,1.632-3.747c0-0.807-0.341-1.431-1.026-1.875c-0.686-0.442-1.451-0.666-2.299-0.666
		c-1.288,0-2.075,0.484-2.358,1.451c-0.08,0.283,0.011,0.597,0.272,0.938c0.265,0.343,0.413,0.615,0.453,0.816
		c0,0.968-0.562,1.451-1.69,1.451c-0.809,0-1.212-0.422-1.212-1.269c0-1.531,0.476-2.751,1.422-3.658
		c0.947-0.906,2.165-1.36,3.656-1.36C280.528,276.171,282.483,277.664,282.483,280.645z"/>
	<path fill="#1068B2" d="M318.875,303.436c-4.109,4.434-7.758,6.649-10.942,6.649c-0.726,0-1.338-0.252-1.843-0.756
		c-0.504-0.502-0.758-1.117-0.758-1.842c0-0.564,0.265-1.362,0.787-2.388c0.522-1.028,0.787-1.824,0.787-2.389
		c0-0.847-0.402-1.49-1.211-1.935c-1.451,2.218-3.062,4.111-4.835,5.684c-2.379,2.176-4.556,3.264-6.528,3.264
		c-1.411,0-2.521-0.484-3.326-1.451c-0.805-0.966-1.208-2.176-1.208-3.627c0-2.579,1.208-4.856,3.626-6.831
		c2.296-1.813,4.756-2.72,7.374-2.72c0.565,0,1.433,0,2.6,0c0.482-1.249,1.248-1.875,2.297-1.875c0.565,0,1.048,0.241,1.45,0.722
		c0.403,0.483,0.605,1.003,0.605,1.565c0,0.321-0.182,1.002-0.544,2.043c2.018,0.965,3.225,1.946,3.627,2.949
		c0.243,1.364,0.486,2.708,0.726,4.031c0.163,0.642,0.544,0.961,1.15,0.961c0.885,0,2.879-0.927,5.983-2.78L318.875,303.436z
		 M304.487,299.688c-0.686-0.564-1.089-1.007-1.208-1.33c-0.123-0.323-0.181-0.968-0.181-1.935c-0.203-0.04-0.465-0.06-0.787-0.06
		c-1.654,0-3.065,0.301-4.233,0.907c-1.491,0.807-2.237,1.933-2.237,3.386c0,0.887,0.304,1.751,0.91,2.599
		c0.602,0.847,1.35,1.27,2.234,1.27C300.838,304.524,302.674,302.912,304.487,299.688z"/>
	<path fill="#1068B2" d="M359.198,303.376c-1.089,1.208-2.521,2.519-4.291,3.93c-2.339,1.893-3.989,2.84-4.957,2.84
		c-1.129,0-2.035-0.785-2.721-2.357c-0.485-1.451-1.008-2.941-1.574-4.474c-0.563-1.531-1.327-2.296-2.296-2.296
		c-0.845,0-2.561,1.57-5.139,4.715c-2.579,3.143-4.25,4.715-5.016,4.715c-0.93,0-1.614-0.867-2.057-2.599
		c-0.283-1.209-0.424-2.519-0.424-3.93c0-1.854,0.626-3.848,1.874-5.986c1.411-2.377,2.981-3.565,4.715-3.565
		c0.646,0,0.969,0.383,0.969,1.148c0,0.726-0.265,1.683-0.787,2.871c-0.521,1.189-0.783,2.187-0.783,2.994
		c0,1.652,0.262,2.338,0.783,2.055c0.323-0.201,1.733-1.613,4.232-4.233c2.057-2.216,3.707-3.324,4.958-3.324
		c1.207,0,2.136,0.808,2.777,2.417c0.487,1.493,0.947,2.983,1.394,4.474c0.605,1.612,1.469,2.418,2.601,2.418
		c0.845,0,1.729-0.263,2.659-0.787c0.765-0.482,1.551-0.986,2.356-1.51L359.198,303.376z"/>
	<path fill="#1068B2" d="M384.528,303.496l-7.982,8.041c-0.12,1.935-1.048,4.715-2.779,8.344c-1.976,3.989-3.709,5.984-5.2,5.984
		c-0.886,0-1.61-0.484-2.177-1.451c-0.442-0.847-0.663-1.753-0.663-2.72c0-1.614,1.661-4.243,4.986-7.891
		c3.326-3.646,4.987-5.732,4.987-6.256c0-1.813-1.066-3.547-3.202-5.199l-0.605,0.06c-2.619,4.958-5.905,7.437-9.855,7.437
		c-1.291,0-2.335-0.543-3.144-1.632c-0.726-0.968-1.088-2.116-1.088-3.447c0-3.143,1.473-5.662,4.414-7.557
		c2.661-1.652,5.581-2.357,8.766-2.115c0.323-0.887,0.522-1.391,0.605-1.512c0.279-0.443,0.744-0.666,1.39-0.666
		c1.331,0,1.995,0.767,1.995,2.298c0,0.565-0.142,1.27-0.425,2.116c2.176,1.935,3.268,3.95,3.268,6.046
		c0,0.482-0.084,1.188-0.242,2.114c-0.164,0.929-0.244,1.614-0.244,2.057c1.372-1.128,3.548-2.74,6.528-4.837L384.528,303.496z
		 M370.866,301.381c-0.606-0.926-0.907-1.651-0.907-2.178c0-1.006,0.182-1.893,0.544-2.658c-2.3,0.12-3.79,0.281-4.476,0.482
		c-1.689,0.524-2.538,1.632-2.538,3.326c0,1.169,0.373,2.156,1.12,2.961c0.743,0.807,1.68,1.209,2.811,1.209
		C368.95,304.524,370.097,303.476,370.866,301.381z"/>
	<path fill="#1068B2" d="M411.309,303.254c-1.291,1.612-2.702,3.043-4.232,4.292c-2.136,1.734-3.928,2.599-5.382,2.599
		c-1.367,0-2.5-0.495-3.385-1.489c-0.725-0.794-1.188-1.708-1.388-2.741c-0.93,1.019-2.058,1.92-3.389,2.704
		c-1.689,1.019-3.202,1.527-4.533,1.527c-1.37,0-2.59-0.611-3.656-1.835c-1.069-1.224-1.604-2.541-1.604-3.946
		c0-1.766,0.563-3.855,1.694-6.264c1.248-2.771,2.618-4.156,4.109-4.156c1.247,0,1.875,0.689,1.875,2.067
		c0,0.851-0.708,1.844-2.118,2.978c-1.411,1.135-2.113,2.045-2.113,2.734c0,1.096,0.765,1.987,2.295,2.675
		c1.251,0.527,2.521,0.79,3.812,0.79c1.61,0,3.04-0.89,4.291-2.671c0.845-1.538,1.693-3.096,2.539-4.673
		c0.159-0.323,0.786-0.919,1.874-1.79c1.089-0.87,1.633-1.326,1.633-1.366c0-0.323-0.203-0.76-0.605-1.305
		c-0.403-0.546-0.606-1.083-0.606-1.609c0-1.213,0.766-1.82,2.3-1.82c1.008,0,1.955,0.466,2.84,1.396
		c0.888,0.931,1.33,1.902,1.33,2.913c0,1.093-0.452,1.973-1.359,2.64c-0.906,0.668-1.943,1.083-3.111,1.245
		c-0.083,0.364-0.599,0.994-1.542,1.882c-0.949,0.89-1.421,1.719-1.421,2.488c0,0.729,0.46,1.356,1.388,1.882
		c0.93,0.526,1.774,0.789,2.54,0.789c1.773,0,3.525-0.906,5.259-2.72L411.309,303.254z"/>
	<path fill="#1068B2" d="M433.371,294.973c0,2.901-1.654,4.514-4.958,4.836c0,0.363,0,0.725,0,1.088c0,2.66-0.987,4.876-2.963,6.65
		c-1.974,1.773-4.313,2.66-7.011,2.66c-2.097,0-3.87-0.605-5.321-1.813c-1.57-1.25-2.357-2.903-2.357-4.958
		c0-2.095,1.15-4.222,3.445-6.378c2.297-2.156,4.393-3.233,6.289-3.233l0.302,0.12v0.544c-1.615,0.605-2.659,1.068-3.146,1.391
		c-1.609,1.088-2.418,2.539-2.418,4.353c0,1.612,0.827,2.901,2.48,3.87c1.367,0.765,2.963,1.148,4.776,1.148
		c2.98,0,4.473-1.731,4.473-5.199c-0.283,0-0.886,0-1.814,0c-2.296,0-3.445-0.753-3.445-2.258c0-2.646,0.362-3.968,1.089-3.968
		c0.482,0,1.247,0.624,2.295,1.873s1.977,1.874,2.781,1.874c0.12,0,0.323-0.02,0.606-0.06c0.278-0.04,0.504-0.06,0.664-0.06
		l0.062-0.303c0-0.604-0.436-1.521-1.303-2.751c-0.867-1.228-1.298-2.043-1.298-2.448c0-1.25,0.845-1.873,2.539-1.873
		c1.127,0,2.118,0.524,2.963,1.57C432.946,292.696,433.371,293.805,433.371,294.973z"/>
	<path fill="#1068B2" d="M426.664,287.838c-0.282,0.203-1.352-0.02-3.206-0.664c-4.028-1.411-6.046-3.125-6.046-5.139
		c0-1.048,0.585-1.573,1.756-1.573c1.247,0,2.024,0.414,2.325,1.241c0.305,0.825,0.577,1.661,0.816,2.508
		c0.445,0.807,1.188,1.492,2.236,2.054C426.201,287.113,426.904,287.637,426.664,287.838z"/>
	<path fill="#1068B2" d="M450.177,303.557c-4.191,4.313-7.655,6.469-10.397,6.469c-1.609,0-2.97-0.706-4.08-2.117
		c-1.11-1.411-1.661-2.921-1.661-4.533c0-1.25,0.624-3.165,1.871-5.743c1.371-2.782,2.579-4.171,3.628-4.171
		c0.525,0,1.008,0.19,1.454,0.573c0.442,0.384,0.664,0.838,0.664,1.36c0,0.685-0.726,1.674-2.177,2.963
		c-1.451,1.29-2.176,2.318-2.176,3.083c0,1.25,0.704,2.216,2.114,2.901c1.128,0.566,2.379,0.847,3.75,0.847
		c2.456,0,4.592-0.807,6.404-2.418L450.177,303.557z M445.4,290.136c-1.098,1.128-2.176,1.692-3.231,1.692
		c-0.735,0-1.425-0.16-2.077-0.482c-0.773-0.363-1.157-0.887-1.157-1.572c0-0.281,0.304-0.847,0.913-1.692
		c0.53-0.725,0.937-1.19,1.223-1.391C442.209,287.657,443.653,288.807,445.4,290.136z"/>
	<path fill="#1068B2" d="M517.34,286.025c0,5.925-2.619,11.245-7.86,15.96c-5.077,4.595-10.579,6.891-16.502,6.891
		c-1.976,0-4.493-0.624-7.558-1.873c-3.547-1.451-5.317-2.983-5.317-4.596c0-1.006,0.482-1.51,1.451-1.51
		c1.407,0,2.578,0.504,3.503,1.51c0.806,0.969,1.614,1.935,2.42,2.901c1.167,1.009,2.8,1.513,4.896,1.513
		c5.078,0,9.594-1.632,13.543-4.896c4.189-3.507,6.285-7.737,6.285-12.696c0-4.19-1.45-7.496-4.352-9.914
		c-2.742-2.258-6.245-3.386-10.519-3.386c-6.568,0-12.15,2.459-16.745,7.375c-3.83,4.111-6.753,9.653-8.766,16.626
		c1.207,1.49,2.255,3.163,3.144,5.016c1.089,2.178,1.633,4.031,1.633,5.562c0,1.895-0.748,2.841-2.238,2.841
		c-1.733,0-3.003-1.127-3.808-3.385c-0.605-1.611-0.906-3.466-0.906-5.562c-2.623-2.256-4.534-4.23-5.746-5.924
		c-1.729-2.417-2.597-4.936-2.597-7.557c0-2.901,0.925-6.226,2.779-9.974c-1.129-0.162-2.274-0.686-3.446-1.573
		c-1.288-0.966-1.934-1.955-1.934-2.961l0.243-0.303c0.159,0.04,0.454,0.151,0.874,0.332c0.425,0.182,0.715,0.272,0.878,0.272
		c1.371,0,2.782-0.502,4.232-1.51c0.806-0.604,1.974-1.652,3.507-3.145c1.368-1.37,2.376-2.216,3.021-2.539
		c0.766,0.243,1.491,1.048,2.176,2.419c0.686,1.371,1.027,2.499,1.027,3.385c0,1.451-0.907,2.599-2.721,3.446
		c-2.941,1.451-4.613,2.337-5.016,2.66c-1.813,1.53-2.72,3.788-2.72,6.77c0,1.813,0.623,3.527,1.87,5.14
		c1.252,1.411,2.521,2.802,3.813,4.17c2.697-7.617,6.325-13.742,10.88-18.377c5.52-5.684,11.929-8.525,19.222-8.525
		c4.636,0,8.625,1.391,11.973,4.173C515.548,277.723,517.34,281.472,517.34,286.025z"/>
	<path fill="#1068B2" d="M536.018,303.557c-4.192,4.313-7.656,6.469-10.398,6.469c-1.61,0-2.97-0.706-4.08-2.117
		c-1.109-1.411-1.661-2.921-1.661-4.533c0-1.25,0.625-3.165,1.872-5.743c1.371-2.782,2.578-4.171,3.626-4.171
		c0.526,0,1.009,0.19,1.455,0.573c0.442,0.384,0.663,0.838,0.663,1.36c0,0.685-0.725,1.674-2.176,2.963
		c-1.45,1.29-2.176,2.318-2.176,3.083c0,1.25,0.703,2.216,2.114,2.901c1.128,0.566,2.38,0.847,3.75,0.847
		c2.455,0,4.592-0.807,6.405-2.418L536.018,303.557z M531.241,290.136c-1.099,1.128-2.177,1.692-3.231,1.692
		c-0.736,0-1.426-0.16-2.078-0.482c-0.772-0.363-1.157-0.887-1.157-1.572c0-0.281,0.305-0.847,0.914-1.692
		c0.529-0.725,0.936-1.19,1.223-1.391C528.05,287.657,529.493,288.807,531.241,290.136z"/>
	<path fill="#1068B2" d="M555.665,302.469c-1.691,2.055-3.605,3.829-5.742,5.319c-2.701,1.855-5.121,2.782-7.254,2.782
		c-2.299,0-4.272-0.706-5.926-2.117c-1.653-1.411-2.478-3.244-2.478-5.501c0-2.74,1.208-5.118,3.627-7.132
		c2.296-1.975,4.835-2.963,7.617-2.963c2.056,0,3.082,0.907,3.082,2.72c0,2.097-1.45,3.808-4.353,5.14
		c-2.016,0.926-4.294,1.532-6.832,1.813c0.686,2.216,3.769,3.324,9.252,3.324c2.136,0,4.936-1.489,8.403-4.473L555.665,302.469z
		 M543.939,298.115c0-0.604-0.232-1.157-0.697-1.661c-0.464-0.504-0.998-0.756-1.604-0.756c-1.37,0-2.487,0.513-3.354,1.542
		c-0.867,1.028-1.383,2.267-1.542,3.717C541.538,300.716,543.939,299.769,543.939,298.115z"/>
	<path fill="#1068B2" d="M551.98,286.994c0,0.323-0.183,0.754-0.545,1.298c-0.362,0.544-0.708,0.816-1.03,0.816
		c-0.482,0-1.218-0.442-2.205-1.329c-0.986-0.887-1.784-1.332-2.39-1.332c-0.643,0-1.582,0.425-2.812,1.271
		c-1.229,0.845-2.143,1.27-2.748,1.27l-0.363-0.182v-0.062c0.12-0.201,1.248-1.298,3.384-3.295c2.137-1.995,3.246-3.012,3.325-3.052
		c0.363,0.201,1.354,0.988,2.964,2.357C551.171,286.126,551.98,286.872,551.98,286.994z M548.109,318.064
		c0,1.572-0.827,2.359-2.48,2.359c-0.965,0-1.843-0.374-2.63-1.119c-0.782-0.747-1.178-1.603-1.178-2.569
		c0-1.654,0.787-2.479,2.357-2.479c1.008,0,1.915,0.382,2.72,1.15C547.707,316.171,548.109,317.058,548.109,318.064z"/>
	<path fill="#1068B2" d="M573.86,303.314c-1.247,1.572-2.8,3.023-4.653,4.354c-2.22,1.652-4.113,2.478-5.683,2.478
		c-1.534,0-2.833-0.644-3.899-1.933c-1.069-1.29-1.604-2.722-1.604-4.292c0-1.249,0.443-3.547,1.332-6.893
		c-1.292,0-2.137-0.04-2.54-0.12c-1.048-0.243-1.573-0.808-1.573-1.694c0-1.208,0.504-1.813,1.513-1.813
		c0.442,0,1.048,0.082,1.813,0.243c1.009,0.161,1.61,0.261,1.813,0.301c0.766-2.82,1.412-4.795,1.934-5.924
		c1.128-2.458,2.561-3.687,4.294-3.687c1.208,0,1.813,0.444,1.813,1.329c0,0.886-0.663,2.419-1.995,4.595
		c-0.968,1.451-1.933,2.921-2.9,4.412c0.924,0.042,2.255,0.062,3.989,0.062c0.402,0,1.009-0.04,1.813-0.122
		c0.805-0.08,1.389-0.122,1.751-0.122c-1.813,1.693-4.772,2.581-8.885,2.661c-0.482,1.45-0.727,2.62-0.727,3.507
		c0,1.57,0.704,2.76,2.118,3.565c1.124,0.646,2.558,0.968,4.29,0.968c1.532,0,3.367-0.765,5.503-2.297L573.86,303.314z"/>
</g>
<path fill="#1068B2" d="M197.883,195.542c0,9.876,3.351,19.07,9.053,26.86v-10.728v-5.549v-21.166v-2.76v-13.517
	C201.234,176.473,197.883,185.667,197.883,195.542z"/>
<path fill="#1068B2" d="M307.788,212.132c-1.789-0.986-4.055-0.331-5.042,1.469c-8.349,15.189-26.548,25.003-46.369,25.003
	c-2.125,0-4.21-0.134-6.267-0.348v-85.427c2.057-0.214,4.142-0.348,6.267-0.348c15.995,0,30.771,6.155,40.542,16.89
	c1.385,1.516,3.732,1.632,5.244,0.247c1.517-1.378,1.629-3.729,0.246-5.245c-11.17-12.281-27.948-19.32-46.031-19.32
	c-18.504,0-35.002,7.479-45.728,19.092v2.579v9.767v38.104v7.809v4.537c10.725,11.613,27.224,19.092,45.728,19.092
	c22.49,0,43.243-11.327,52.876-28.855C310.243,215.381,309.587,213.122,307.788,212.132z"/>
<path fill="#1068B2" d="M370.115,159.046c-0.54-4.846,4.84-6.739,10.388-7.258c3.747-0.351,13.523,0.228,22.456,5.285
	c1.332,0.754,3.445,1.69,4.888,2.116c0.17,0.077,0.354,0.122,0.548,0.143c0.008,0.001,0.018,0.005,0.025,0.006l0.002-0.004
	c0.057,0.005,0.111,0.017,0.169,0.017c1.005,0,1.819-0.814,1.819-1.819c0-0.46-0.176-0.875-0.457-1.195l0.001-0.002
	c-0.008-0.009-0.018-0.017-0.025-0.026c-0.03-0.033-0.06-0.065-0.093-0.096c-6.378-7.135-18.309-10.223-30.977-10.223
	c-18.569,0-36.211,7.736-36.211,22.283c0,14.548,44.227,50.166,47.105,59.813c1.633,5.471-0.022,10.059-1.879,13.228
	c9.188-1.813,29.669-10.212,29.669-27.545C417.544,196.435,371.159,168.388,370.115,159.046z"/>
<path fill="#1068B2" d="M336.766,172.915c-0.475-8.701,5.883-17.641,5.883-17.641s-14.547,5.571-14.547,18.261
	c0,12.687,38.815,47.924,41.406,50.789c5.179,5.728,3.509,11.324-5.174,11.455c-10.119,0.156-23.034-10.352-29.766-14.465
	c-0.002,0.001-0.003,0.001-0.005,0.002c-0.384-0.292-0.856-0.473-1.376-0.473c-1.26,0-2.281,1.021-2.281,2.281
	c0,0.523,0.184,0.999,0.479,1.384l-0.006,0.004c6.916,10.905,28.927,18.89,35.097,19.274c4.941,0.309,17.024,0.312,17.024-12.07
	C383.501,216.321,337.387,184.299,336.766,172.915z"/>
</svg>
